REM DIRINDEX 1\2,1\3,1\4,1\5
REM DIRNAME folder01,folder02,folder03,folder04,folder05
TITLE ""
FILE "P1Q_t_0452-0461.mp3" MP3
  TRACK 01 AUDIO
    TITLE "3:cjc005_2258"
    INDEX 01 00:00:00
  TRACK 02 AUDIO
    TITLE "0:"
    INDEX 01 00:01:22
  TRACK 03 AUDIO
    TITLE "4:cjc005_2259"
    INDEX 01 00:01:42
  TRACK 04 AUDIO
    TITLE "0:"
    INDEX 01 00:02:63
  TRACK 05 AUDIO
    TITLE "5:cjc005_2260"
    INDEX 01 00:03:12
  TRACK 06 AUDIO
    TITLE "0:"
    INDEX 01 00:07:03
  TRACK 07 AUDIO
    TITLE "3:cjc005_2261"
    INDEX 01 00:07:56
  TRACK 08 AUDIO
    TITLE "0:"
    INDEX 01 00:08:68
  TRACK 09 AUDIO
    TITLE "4:cjc005_2262"
    INDEX 01 00:09:18
  TRACK 10 AUDIO
    TITLE "0:"
    INDEX 01 00:10:41
  TRACK 11 AUDIO
    TITLE "5:cjc005_2263"
    INDEX 01 00:10:66
  TRACK 12 AUDIO
    TITLE "0:"
    INDEX 01 00:14:47
  TRACK 13 AUDIO
    TITLE "3:cjc005_2264"
    INDEX 01 00:15:25
  TRACK 14 AUDIO
    TITLE "0:"
    INDEX 01 00:16:36
  TRACK 15 AUDIO
    TITLE "4:cjc005_2265"
    INDEX 01 00:16:67
  TRACK 16 AUDIO
    TITLE "0:"
    INDEX 01 00:18:05
  TRACK 17 AUDIO
    TITLE "5:cjc005_2266"
    INDEX 01 00:18:25
  TRACK 18 AUDIO
    TITLE "0:"
    INDEX 01 00:22:68
  TRACK 19 AUDIO
    TITLE "3:cjc005_2267"
    INDEX 01 00:23:44
  TRACK 20 AUDIO
    TITLE "0:"
    INDEX 01 00:24:53
  TRACK 21 AUDIO
    TITLE "4:cjc005_2268"
    INDEX 01 00:25:01
  TRACK 22 AUDIO
    TITLE "0:"
    INDEX 01 00:26:26
  TRACK 23 AUDIO
    TITLE "5:cjc005_2269"
    INDEX 01 00:26:52
  TRACK 24 AUDIO
    TITLE "0:"
    INDEX 01 00:30:30
  TRACK 25 AUDIO
    TITLE "3:cjc005_2270"
    INDEX 01 00:31:06
  TRACK 26 AUDIO
    TITLE "0:"
    INDEX 01 00:32:33
  TRACK 27 AUDIO
    TITLE "4:cjc005_2271"
    INDEX 01 00:32:60
  TRACK 28 AUDIO
    TITLE "0:"
    INDEX 01 00:34:02
  TRACK 29 AUDIO
    TITLE "5:cjc005_2272"
    INDEX 01 00:34:32
  TRACK 30 AUDIO
    TITLE "0:"
    INDEX 01 00:38:47
  TRACK 31 AUDIO
    TITLE "3:cjc005_2273"
    INDEX 01 00:39:25
  TRACK 32 AUDIO
    TITLE "0:"
    INDEX 01 00:40:42
  TRACK 33 AUDIO
    TITLE "4:cjc005_2274"
    INDEX 01 00:41:04
  TRACK 34 AUDIO
    TITLE "0:"
    INDEX 01 00:42:63
  TRACK 35 AUDIO
    TITLE "5:cjc005_2275"
    INDEX 01 00:43:11
  TRACK 36 AUDIO
    TITLE "0:"
    INDEX 01 00:47:68
  TRACK 37 AUDIO
    TITLE "3:cjc005_2276"
    INDEX 01 00:48:44
  TRACK 38 AUDIO
    TITLE "0:"
    INDEX 01 00:49:65
  TRACK 39 AUDIO
    TITLE "4:cjc005_2277"
    INDEX 01 00:50:17
  TRACK 40 AUDIO
    TITLE "0:"
    INDEX 01 00:51:56
  TRACK 41 AUDIO
    TITLE "5:cjc005_2278"
    INDEX 01 00:52:12
  TRACK 42 AUDIO
    TITLE "0:"
    INDEX 01 00:56:25
  TRACK 43 AUDIO
    TITLE "3:cjc005_2279"
    INDEX 01 00:57:01
  TRACK 44 AUDIO
    TITLE "0:"
    INDEX 01 00:58:11
  TRACK 45 AUDIO
    TITLE "4:cjc005_2280"
    INDEX 01 00:58:46
  TRACK 46 AUDIO
    TITLE "0:"
    INDEX 01 00:59:65
  TRACK 47 AUDIO
    TITLE "5:cjc005_2281"
    INDEX 01 01:00:15
  TRACK 48 AUDIO
    TITLE "0:"
    INDEX 01 01:05:09
  TRACK 49 AUDIO
    TITLE "3:cjc005_2282"
    INDEX 01 01:05:58
  TRACK 50 AUDIO
    TITLE "0:"
    INDEX 01 01:07:08
  TRACK 51 AUDIO
    TITLE "4:cjc005_2283"
    INDEX 01 01:07:37
  TRACK 52 AUDIO
    TITLE "0:"
    INDEX 01 01:08:56
  TRACK 53 AUDIO
    TITLE "5:cjc005_2284"
    INDEX 01 01:09:05
  TRACK 54 AUDIO
    TITLE "0:"
    INDEX 01 01:13:49
  TRACK 55 AUDIO
    TITLE "3:cjc005_2285"
    INDEX 01 01:14:25
  TRACK 56 AUDIO
    TITLE "0:"
    INDEX 01 01:15:23
  TRACK 57 AUDIO
    TITLE "4:cjc005_2286"
    INDEX 01 01:15:52
  TRACK 58 AUDIO
    TITLE "0:"
    INDEX 01 01:16:61
  TRACK 59 AUDIO
    TITLE "5:cjc005_2287"
    INDEX 01 01:17:08
  TRACK 60 AUDIO
    TITLE "0:"
    INDEX 01 01:21:08
